<svg xmlns="http://www.w3.org/2000/svg" xmlns:xlink="http://www.w3.org/1999/xlink" id="Layer_1" x="0" y="0" version="1.1" viewBox="0 0 180 80" xml:space="preserve" style="enable-background:new 0 0 180 80"><style type="text/css">.st0{fill:none}.st1{fill:#4d4d4d}.st2{fill:#999}.st3{fill:#333}.st4{fill:url(#SVGID_1_);stroke-miterlimit:10}.st4,.st5,.st6,.st7{stroke:#4d4d4d}.st5,.st6,.st7,.st8{stroke-miterlimit:10}.st5{fill:url(#SVGID_2_)}.st6{fill:url(#SVGID_3_)}.st7{fill:url(#SVGID_4_)}.st8{fill:none;stroke:#333;stroke-linecap:round}.st9{fill:#8cc63f}.st10,.st11{opacity:.5;fill:none;stroke:#8cc63f;stroke-width:.5;stroke-miterlimit:10}.st11{opacity:.2;stroke:#fff;stroke-width:.25;stroke-linecap:round}</style><pattern id="New_Pattern_Swatch_8" width="1.6" height="1.6" patternUnits="userSpaceOnUse" viewBox="0.2 -1.8 1.6 1.6" style="overflow:visible"><g><polygon points=".2 -.2 1.8 -.2 1.8 -1.8 .2 -1.8" class="st0"/><path d="M1.4-1.8c0,0.2-0.2,0.4-0.4,0.4S0.6-1.6,0.6-1.8" class="st1"/><path d="M0.6-0.2c0-0.2,0.2-0.4,0.4-0.4s0.4,0.2,0.4,0.4" class="st1"/><path d="M0.2-1.4c0.2,0,0.4,0.2,0.4,0.4S0.4-0.6,0.2-0.6" class="st1"/><path d="M1.8-0.6C1.6-0.6,1.4-0.8,1.4-1s0.2-0.4,0.4-0.4" class="st1"/></g></pattern><g><path d="M59.8,71c-2.1,0-4.8-2.3-4.8-4.6v-9c0-1.2,0.5-2.3,1.4-3c-0.8-0.7-1.4-1.8-1.4-3v-9c0-1.2,0.5-2.3,1.4-3 c-0.8-0.7-1.4-1.8-1.4-3v-9c0-1.2,0.5-2.3,1.4-3c-0.8-0.7-1.4-1.8-1.4-3v-9c0-2.2,2.3-3.4,4.8-3.4h61.8c3.2,0,3.4,2.5,3.4,3.4v9 c0,1.2-0.5,2.3-1.4,3c0.8,0.7,1.4,1.8,1.4,3v9c0,1.2-0.5,2.3-1.4,3c0.8,0.7,1.4,1.8,1.4,3v9c0,1.2-0.5,2.3-1.4,3 c0.8,0.7,1.4,1.8,1.4,3v9c0,2.9-1.5,4.6-3.4,4.6H59.8z" class="st2"/><path d="M121.9,10c1.7,0,2.1,0.7,2.1,2.4v9c0,1.6-1.3,3-3,3c1.7,0,3,1.3,3,3v9c0,1.6-1.3,3-3,3c1.7,0,3,1.3,3,3v9 c0,1.6-1.3,3-3,3c1.7,0,3,1.3,3,3v9c0,1.6-0.8,3.6-2.4,3.6H59.8c-1.7,0-3.8-2-3.8-3.6v-9c0-1.7,1.3-3,3-3c-1.7,0-3-1.4-3-3v-9 c0-1.7,1.3-3,3-3c-1.7,0-3-1.4-3-3v-9c0-1.7,1.3-3,3-3c-1.7,0-3-1.4-3-3v-9c0-1.7,2.1-2.4,3.8-2.4H121.9 M121.6,8H59.8 c-3,0-5.8,1.5-5.8,4.4v9c0,1.1,0.4,2.2,1,3c-0.6,0.8-1,1.9-1,3v9c0,1.1,0.4,2.2,1,3c-0.6,0.8-1,1.9-1,3v9c0,1.1,0.4,2.2,1,3 c-0.6,0.8-1,1.9-1,3v9c0,2.9,3.1,5.6,5.8,5.6h61.8c2.5,0,4.4-2.2,4.4-5.6v-9c0-1.1-0.4-2.2-1-3c0.6-0.8,1-1.9,1-3v-9 c0-1.1-0.4-2.2-1-3c0.6-0.8,1-1.9,1-3v-9c0-1.1-0.4-2.2-1-3c0.6-0.8,1-1.9,1-3v-9c0-3.8-2.7-4.4-4.3-4.4H121.6z" class="st3"/></g><pattern id="SVGID_1_" patternTransform="matrix(1 0 0 1 2.125 10.375)" xlink:href="#New_Pattern_Swatch_8"/><rect width="62" height="9" x="59.5" y="57.5" class="st4"/><pattern id="SVGID_2_" patternTransform="matrix(1 0 0 1 2.125 10.375)" xlink:href="#New_Pattern_Swatch_8"/><rect width="62" height="9" x="59.5" y="42.5" class="st5"/><pattern id="SVGID_3_" patternTransform="matrix(1 0 0 1 2.125 10.375)" xlink:href="#New_Pattern_Swatch_8"/><rect width="62" height="9" x="59.5" y="27.5" class="st6"/><pattern id="SVGID_4_" patternTransform="matrix(1 0 0 1 2.125 10.375)" xlink:href="#New_Pattern_Swatch_8"/><rect width="62" height="9" x="59.5" y="12.5" class="st7"/><line x1="63" x2="117" y1="24.5" y2="24.5" class="st8"/><line x1="63" x2="117" y1="39.5" y2="39.5" class="st8"/><line x1="63" x2="117" y1="54.5" y2="54.5" class="st8"/><circle cx="63.3" cy="17.2" r="1.4" class="st9"/><circle cx="63.3" cy="17.2" r=".9" class="st10"/><circle cx="67.3" cy="17.2" r="1.4" class="st9"/><circle cx="67.3" cy="17.2" r=".9" class="st10"/><circle cx="71.3" cy="17.2" r="1.4" class="st9"/><circle cx="71.3" cy="17.2" r=".9" class="st10"/><path d="M63.3,16.3c0.5,0,0.9,0.4,0.9,0.9" class="st11"/><path d="M67.3,16.3c0.5,0,0.9,0.4,0.9,0.9" class="st11"/><path d="M71.3,16.3c0.5,0,0.9,0.4,0.9,0.9" class="st11"/><circle cx="63.3" cy="32.2" r="1.4" class="st9"/><circle cx="63.3" cy="32.2" r=".9" class="st10"/><circle cx="67.3" cy="32.2" r="1.4" class="st9"/><circle cx="67.3" cy="32.2" r=".9" class="st10"/><circle cx="71.3" cy="32.2" r="1.4" class="st9"/><circle cx="71.3" cy="32.2" r=".9" class="st10"/><circle cx="63.3" cy="47.2" r="1.4" class="st9"/><circle cx="63.3" cy="47.2" r=".9" class="st10"/><circle cx="67.3" cy="47.2" r="1.4" class="st9"/><circle cx="67.3" cy="47.2" r=".9" class="st10"/><circle cx="71.3" cy="47.2" r="1.4" class="st9"/><circle cx="71.3" cy="47.2" r=".9" class="st10"/><circle cx="63.3" cy="62.2" r="1.4" class="st9"/><circle cx="63.3" cy="62.2" r=".9" class="st10"/><circle cx="67.3" cy="62.2" r="1.4" class="st9"/><circle cx="67.3" cy="62.2" r=".9" class="st10"/><circle cx="71.3" cy="62.2" r="1.4" class="st9"/><circle cx="71.3" cy="62.2" r=".9" class="st10"/><path d="M63.3,31.3c0.5,0,0.9,0.4,0.9,0.9" class="st11"/><path d="M67.3,31.3c0.5,0,0.9,0.4,0.9,0.9" class="st11"/><path d="M71.3,31.3c0.5,0,0.9,0.4,0.9,0.9" class="st11"/><path d="M63.3,46.3c0.5,0,0.9,0.4,0.9,0.9" class="st11"/><path d="M67.3,46.3c0.5,0,0.9,0.4,0.9,0.9" class="st11"/><path d="M71.3,46.3c0.5,0,0.9,0.4,0.9,0.9" class="st11"/><path d="M63.3,61.3c0.5,0,0.9,0.4,0.9,0.9" class="st11"/><path d="M67.3,61.3c0.5,0,0.9,0.4,0.9,0.9" class="st11"/><path d="M71.3,61.3c0.5,0,0.9,0.4,0.9,0.9" class="st11"/></svg>